<mxfile host="app.diagrams.net" agent="Mozilla/5.0 (Macintosh; Intel Mac OS X 10_15_7) AppleWebKit/605.1.15 (KHTML, like Gecko) Version/17.5 Safari/605.1.15" version="24.7.7">
  <diagram name="Сторінка-1" id="3HKOVPZ1496Wqs8B1J8Y">
    <mxGraphModel dx="1434" dy="877" grid="1" gridSize="10" guides="1" tooltips="1" connect="1" arrows="1" fold="1" page="1" pageScale="1" pageWidth="827" pageHeight="1169" math="0" shadow="0">
      <root>
        <mxCell id="0" />
        <mxCell id="1" parent="0" />
        <mxCell id="x-2uMS9t9mA593oZvt3H-7" value="&lt;p style=&quot;margin: 0.0px 0.0px 0.0px 0.0px; font: 12.0px Helvetica&quot;&gt;PersonalAssistant&lt;/p&gt;&#xa;&lt;p style=&quot;margin: 0.0px 0.0px 0.0px 0.0px; font: 12.0px Helvetica&quot;&gt;- view: View&lt;/p&gt;&#xa;&lt;p style=&quot;margin: 0.0px 0.0px 0.0px 0.0px; font: 12.0px Helvetica&quot;&gt;_init_(view: View)&lt;/p&gt;&#xa;&lt;p style=&quot;margin: 0.0px 0.0px 0.0px 0.0px; font: 12.0px Helvetica&quot;&gt;+ show contact_ card(contact _info: dict)&lt;/p&gt;" style="rounded=0;whiteSpace=wrap;html=1;" vertex="1" parent="1">
          <mxGeometry x="100" y="160" width="240" height="130" as="geometry" />
        </mxCell>
        <mxCell id="x-2uMS9t9mA593oZvt3H-9" value="&lt;p style=&quot;margin: 0.0px 0.0px 0.0px 0.0px; font: 12.0px Helvetica&quot;&gt;Console View (inherits View)&lt;/p&gt;&#xa;&lt;p style=&quot;margin: 0.0px 0.0px 0.0px 0.0px; font: 12.0px Helvetica&quot;&gt;+ display(data: dict)&lt;/p&gt;" style="rounded=0;whiteSpace=wrap;html=1;" vertex="1" parent="1">
          <mxGeometry x="490" y="170" width="260" height="80" as="geometry" />
        </mxCell>
        <mxCell id="x-2uMS9t9mA593oZvt3H-15" value="" style="endArrow=classic;html=1;rounded=0;entryX=0.213;entryY=-0.057;entryDx=0;entryDy=0;entryPerimeter=0;" edge="1" parent="1" target="x-2uMS9t9mA593oZvt3H-17">
          <mxGeometry width="50" height="50" relative="1" as="geometry">
            <mxPoint x="180" y="300" as="sourcePoint" />
            <mxPoint x="330" y="440" as="targetPoint" />
          </mxGeometry>
        </mxCell>
        <mxCell id="x-2uMS9t9mA593oZvt3H-16" value="" style="endArrow=classic;html=1;rounded=0;exitX=0.596;exitY=1.038;exitDx=0;exitDy=0;exitPerimeter=0;entryX=0.808;entryY=-0.029;entryDx=0;entryDy=0;entryPerimeter=0;" edge="1" parent="1" source="x-2uMS9t9mA593oZvt3H-9" target="x-2uMS9t9mA593oZvt3H-17">
          <mxGeometry width="50" height="50" relative="1" as="geometry">
            <mxPoint x="560" y="380" as="sourcePoint" />
            <mxPoint x="490" y="440" as="targetPoint" />
          </mxGeometry>
        </mxCell>
        <mxCell id="x-2uMS9t9mA593oZvt3H-18" value="Text" style="edgeLabel;html=1;align=center;verticalAlign=middle;resizable=0;points=[];" vertex="1" connectable="0" parent="x-2uMS9t9mA593oZvt3H-16">
          <mxGeometry x="0.9156" y="-3" relative="1" as="geometry">
            <mxPoint x="-34" y="39" as="offset" />
          </mxGeometry>
        </mxCell>
        <mxCell id="x-2uMS9t9mA593oZvt3H-17" value="" style="rounded=1;whiteSpace=wrap;html=1;" vertex="1" parent="1">
          <mxGeometry x="290" y="450" width="240" height="80" as="geometry" />
        </mxCell>
        <mxCell id="x-2uMS9t9mA593oZvt3H-19" value="&lt;p style=&quot;margin: 0.0px 0.0px 0.0px 0.0px; font: 12.0px Helvetica&quot;&gt;View (Abstract Class)&lt;/p&gt;&#xa;&lt;p style=&quot;margin: 0.0px 0.0px 0.0px 0.0px; font: 12.0px Helvetica&quot;&gt;+ display(data: dict)&lt;/p&gt;" style="text;whiteSpace=wrap;html=1;" vertex="1" parent="1">
          <mxGeometry x="350" y="460" width="150" height="90" as="geometry" />
        </mxCell>
      </root>
    </mxGraphModel>
  </diagram>
</mxfile>
